<?xml version="1.0" encoding="UTF-8" standalone="no"?>
<!DOCTYPE svg PUBLIC "-//W3C//DTD SVG 1.1//EN"
 "http://www.w3.org/Graphics/SVG/1.1/DTD/svg11.dtd">
<!-- Generated by graphviz version 2.40.1 (20161225.0304)
 -->
<!-- Title: dependencies Pages: 1 -->
<svg width="504pt" height="211pt"
 viewBox="0.00 0.00 504.00 211.00" xmlns="http://www.w3.org/2000/svg" xmlns:xlink="http://www.w3.org/1999/xlink">
<g id="graph0" class="graph" transform="scale(1 1) rotate(0) translate(4 207)">
<title>dependencies</title>
<polygon fill="#ffffff" stroke="transparent" points="-4,4 -4,-207 500,-207 500,4 -4,4"/>
<text text-anchor="start" x="227.0091" y="-42.4" font-family="sans-serif" font-weight="bold" font-size="14.00" fill="#000000">Legend</text>
<polygon fill="#ffffb3" stroke="transparent" points="14,-10 14,-30 34,-30 34,-10 14,-10"/>
<text text-anchor="start" x="37.629" y="-15.4" font-family="sans-serif" font-size="14.00" fill="#000000"> &#160;Declarations</text>
<polygon fill="#8dd3c7" stroke="transparent" points="127,-10 127,-30 147,-30 147,-10 127,-10"/>
<text text-anchor="start" x="150.7251" y="-15.4" font-family="sans-serif" font-size="14.00" fill="#000000"> &#160;Module</text>
<polygon fill="#80b1d3" stroke="transparent" points="213,-10 213,-30 233,-30 233,-10 213,-10"/>
<text text-anchor="start" x="236.7812" y="-15.4" font-family="sans-serif" font-size="14.00" fill="#000000"> &#160;Bootstrap</text>
<polygon fill="#fdb462" stroke="transparent" points="310,-10 310,-30 330,-30 330,-10 310,-10"/>
<text text-anchor="start" x="333.6732" y="-15.4" font-family="sans-serif" font-size="14.00" fill="#000000"> &#160;Providers</text>
<polygon fill="#fb8072" stroke="transparent" points="406,-10 406,-30 426,-30 426,-10 406,-10"/>
<text text-anchor="start" x="429.7258" y="-15.4" font-family="sans-serif" font-size="14.00" fill="#000000"> &#160;Exports</text>
<g id="clust1" class="cluster">
<title>cluster_CalendarioModule</title>
<polygon fill="none" stroke="#000000" stroke-dasharray="1,5" points="125,-70 125,-195 371,-195 371,-70 125,-70"/>
</g>
<g id="clust3" class="cluster">
<title>cluster_CalendarioModule_imports</title>
<polygon fill="none" stroke="#000000" points="133,-78 133,-130 363,-130 363,-78 133,-78"/>
</g>
<!-- CommonModule -->
<g id="node1" class="node">
<title>CommonModule</title>
<polygon fill="#8dd3c7" stroke="#000000" points="354.6681,-122 351.6681,-126 330.6681,-126 327.6681,-122 243.3319,-122 243.3319,-86 354.6681,-86 354.6681,-122"/>
<text text-anchor="middle" x="299" y="-99.8" font-family="Times,serif" font-size="14.00" fill="#000000">CommonModule</text>
</g>
<!-- CalendarioModule -->
<g id="node3" class="node">
<title>CalendarioModule</title>
<polygon fill="#8dd3c7" stroke="#000000" points="306.472,-187 303.472,-191 282.472,-191 279.472,-187 185.528,-187 185.528,-151 306.472,-151 306.472,-187"/>
<text text-anchor="middle" x="246" y="-164.8" font-family="Times,serif" font-size="14.00" fill="#000000">CalendarioModule</text>
</g>
<!-- CommonModule&#45;&gt;CalendarioModule -->
<g id="edge1" class="edge">
<title>CommonModule&#45;&gt;CalendarioModule</title>
<path fill="none" stroke="#000000" d="M274.8261,-122.1061C274.8261,-122.1061 274.8261,-140.991 274.8261,-140.991"/>
<polygon fill="#000000" stroke="#000000" points="271.3262,-140.9909 274.8261,-150.991 278.3262,-140.991 271.3262,-140.9909"/>
</g>
<!-- HttpModule -->
<g id="node2" class="node">
<title>HttpModule</title>
<polygon fill="#8dd3c7" stroke="#000000" points="225.4387,-122 222.4387,-126 201.4387,-126 198.4387,-122 140.5613,-122 140.5613,-86 225.4387,-86 225.4387,-122"/>
<text text-anchor="middle" x="183" y="-99.8" font-family="Times,serif" font-size="14.00" fill="#000000">HttpModule</text>
</g>
<!-- HttpModule&#45;&gt;CalendarioModule -->
<g id="edge2" class="edge">
<title>HttpModule&#45;&gt;CalendarioModule</title>
<path fill="none" stroke="#000000" d="M205.3664,-122.1061C205.3664,-122.1061 205.3664,-140.991 205.3664,-140.991"/>
<polygon fill="#000000" stroke="#000000" points="201.8665,-140.9909 205.3664,-150.991 208.8665,-140.991 201.8665,-140.9909"/>
</g>
</g>
</svg>
